<?xml version="1.0" encoding="UTF-8"?>
<svg version="1.1" xmlns="http://www.w3.org/2000/svg" width="335" height="66">
<path d="M0 0 C110.55 0 221.1 0 335 0 C335 21.78 335 43.56 335 66 C224.45 66 113.9 66 0 66 C0 44.22 0 22.44 0 0 Z " fill="#FDFEFE" transform="translate(0,0)"/>
<path d="M0 0 C3.375 1.875 3.375 1.875 6 4 C7.3191582 4.69429379 8.64649406 5.37530495 10 6 C10.94875 5.195625 11.8975 4.39125 12.875 3.5625 C17.0805703 -0.00309221 19.98751718 -0.33240261 25.4609375 -0.29296875 C29.08487028 0.12517734 31.20464517 1.73709371 34 4 C35.3191582 4.69429379 36.64649406 5.37530495 38 6 C38.94875 5.195625 39.8975 4.39125 40.875 3.5625 C45.0805703 -0.00309221 47.98751718 -0.33240261 53.4609375 -0.29296875 C57.08487028 0.12517734 59.20464517 1.73709371 62 4 C63.3191582 4.69429379 64.64649406 5.37530495 66 6 C66.94875 5.195625 67.8975 4.39125 68.875 3.5625 C73.0805703 -0.00309221 75.98751718 -0.33240261 81.4609375 -0.29296875 C85.08487028 0.12517734 87.20464517 1.73709371 90 4 C91.3191582 4.69429379 92.64649406 5.37530495 94 6 C94.94875 5.195625 95.8975 4.39125 96.875 3.5625 C101.07519436 0.00146565 103.98186575 -0.34850175 109.453125 -0.27734375 C113.23663805 0.13466457 115.26352388 1.40034768 118 4 C119.375 7.25 119.375 7.25 120 10 C120.66 10 121.32 10 122 10 C122.268125 9.401875 122.53625 8.80375 122.8125 8.1875 C123.98493467 6.02775192 125.19369282 4.64209744 127 3 C127.99 3.495 127.99 3.495 129 4 C128.67 4.99 128.34 5.98 128 7 C127.85436504 8.45617639 127.75340665 9.91713152 127.68359375 11.37890625 C127.64169922 12.21744141 127.59980469 13.05597656 127.55664062 13.91992188 C127.51732422 14.79197266 127.47800781 15.66402344 127.4375 16.5625 C127.37272461 17.87637695 127.37272461 17.87637695 127.30664062 19.21679688 C127.08230183 23.60650578 127.08230183 23.60650578 127 28 C131.74760623 30.60352599 135.87857495 30.00946714 141 29 C143.91509282 28.05523446 143.91509282 28.05523446 146 27 C142.34190461 30.7800319 140.52555899 32.16062785 135.25 32.3125 C130.36573046 32.27731074 127.84564571 31.11314176 124 28 C122.6808418 27.30570621 121.35350594 26.62469505 120 26 C119.4225 26.61875 118.845 27.2375 118.25 27.875 C113.909849 31.9740315 110.28978672 32.43084918 104.46875 32.328125 C100.90279201 31.85416856 98.7575719 30.23232011 96 28 C94.6808418 27.30570621 93.35350594 26.62469505 92 26 C91.05125 26.804375 90.1025 27.60875 89.125 28.4375 C84.9194297 32.00309221 82.01248282 32.33240261 76.5390625 32.29296875 C72.91512972 31.87482266 70.79535483 30.26290629 68 28 C66.6808418 27.30570621 65.35350594 26.62469505 64 26 C63.4225 26.61875 62.845 27.2375 62.25 27.875 C57.909849 31.9740315 54.28978672 32.43084918 48.46875 32.328125 C44.90279201 31.85416856 42.7575719 30.23232011 40 28 C38.6808418 27.30570621 37.35350594 26.62469505 36 26 C35.05125 26.804375 34.1025 27.60875 33.125 28.4375 C28.9194297 32.00309221 26.01248282 32.33240261 20.5390625 32.29296875 C16.91512972 31.87482266 14.79535483 30.26290629 12 28 C10.6808418 27.30570621 9.35350594 26.62469505 8 26 C7.4225 26.61875 6.845 27.2375 6.25 27.875 C1.91230185 31.97171492 -1.70809126 32.43563301 -7.52734375 32.32421875 C-11.1355468 31.85110524 -13.26743367 30.33267857 -16 28 C-16.639375 27.54625 -17.27875 27.0925 -17.9375 26.625 C-19.63093456 24.03504126 -18.60462322 21.96815038 -18 19 C-17.79050341 14.77394815 -17.654234 11.03729799 -19 7 C-17.87720538 6.01830524 -16.75168527 5.03972702 -15.625 4.0625 C-14.68527344 3.24458984 -14.68527344 3.24458984 -13.7265625 2.41015625 C-9.6407905 -0.92686567 -5.06319762 -0.58421511 0 0 Z " fill="#F7F8F8" transform="translate(93,17)"/>
<path d="M0 0 C3.375 1.875 3.375 1.875 6 4 C7.3191582 4.69429379 8.64649406 5.37530495 10 6 C10.94875 5.195625 11.8975 4.39125 12.875 3.5625 C17.0805703 -0.00309221 19.98751718 -0.33240261 25.4609375 -0.29296875 C29.08487028 0.12517734 31.20464517 1.73709371 34 4 C35.3191582 4.69429379 36.64649406 5.37530495 38 6 C38.94875 5.195625 39.8975 4.39125 40.875 3.5625 C45.07859773 -0.00141981 47.98491279 -0.33644015 53.45703125 -0.2890625 C57.1213785 0.12746852 59.23163423 1.63676093 62 4 C62.55429687 4.3815625 63.10859375 4.763125 63.6796875 5.15625 C65.79907924 8.11587397 65.05113965 11.24096842 64.6875 14.6875 C64.62626953 15.38939453 64.56503906 16.09128906 64.50195312 16.81445312 C64.34897376 18.5442967 64.17637398 20.27238497 64 22 C64.66 22.33 65.32 22.66 66 23 C64.14292164 26.93263652 61.98720417 29.24856457 58.09375 31.26953125 C54.07489768 32.67163085 50.17281555 32.70351601 46 32 C42.625 30.125 42.625 30.125 40 28 C38.6808418 27.30570621 37.35350594 26.62469505 36 26 C35.4225 26.61875 34.845 27.2375 34.25 27.875 C29.909849 31.9740315 26.28978672 32.43084918 20.46875 32.328125 C16.90279201 31.85416856 14.7575719 30.23232011 12 28 C10.6808418 27.30570621 9.35350594 26.62469505 8 26 C7.4225 26.61875 6.845 27.2375 6.25 27.875 C1.91112048 31.97283065 -1.70782052 32.43097372 -7.52734375 32.328125 C-11.10360759 31.8535497 -13.26105948 30.27131653 -16 28 C-16.99 27.34 -17.98 26.68 -19 26 C-19.66 26.33 -20.32 26.66 -21 27 C-21.33 26.34 -21.66 25.68 -22 25 C-22.66 25.33 -23.32 25.66 -24 26 C-24 25.01 -24 24.02 -24 23 C-25.65 23 -27.3 23 -29 23 C-29.33 23.99 -29.66 24.98 -30 26 C-34.875 25.125 -34.875 25.125 -36 24 C-36.12658222 21.34177343 -36.18520214 18.72112576 -36.1875 16.0625 C-36.19974609 15.32064453 -36.21199219 14.57878906 -36.22460938 13.81445312 C-36.22988478 11.87486371 -36.12188902 9.9357629 -36 8 C-35.34 7.34 -34.68 6.68 -34 6 C-31.375 6.375 -31.375 6.375 -29 7 C-29 7.66 -29 8.32 -29 9 C-27.02 9 -25.04 9 -23 9 C-22.67 8.34 -22.34 7.68 -22 7 C-21.67 7.99 -21.34 8.98 -21 10 C-20.34 10 -19.68 10 -19 10 C-19.66 8.35 -20.32 6.7 -21 5 C-20.01 5.33 -19.02 5.66 -18 6 C-15.94272868 4.4045651 -13.94125344 2.73473712 -12 1 C-8.29560824 -0.85219588 -4.04280524 -0.46647753 0 0 Z " fill="#E7EFF5" transform="translate(260,17)"/>
<path d="M0 0 C3.375 1.875 3.375 1.875 6 4 C7.3191582 4.69429379 8.64649406 5.37530495 10 6 C10.94875 5.195625 11.8975 4.39125 12.875 3.5625 C17.0805703 -0.00309221 19.98751718 -0.33240261 25.4609375 -0.29296875 C29.08487028 0.12517734 31.20464517 1.73709371 34 4 C35.3191582 4.69429379 36.64649406 5.37530495 38 6 C38.94875 5.195625 39.8975 4.39125 40.875 3.5625 C45.07519436 0.00146565 47.98186575 -0.34850175 53.453125 -0.27734375 C57.23663805 0.13466457 59.26352388 1.40034768 62 4 C63.375 7.25 63.375 7.25 64 10 C64.66 10 65.32 10 66 10 C66.268125 9.401875 66.53625 8.80375 66.8125 8.1875 C67.98493467 6.02775192 69.19369282 4.64209744 71 3 C71.99 3.495 71.99 3.495 73 4 C72.67 4.99 72.34 5.98 72 7 C71.85436504 8.45617639 71.75340665 9.91713152 71.68359375 11.37890625 C71.64169922 12.21744141 71.59980469 13.05597656 71.55664062 13.91992188 C71.51732422 14.79197266 71.47800781 15.66402344 71.4375 16.5625 C71.37272461 17.87637695 71.37272461 17.87637695 71.30664062 19.21679688 C71.08230183 23.60650578 71.08230183 23.60650578 71 28 C75.74760623 30.60352599 79.87857495 30.00946714 85 29 C87.91509282 28.05523446 87.91509282 28.05523446 90 27 C86.34190461 30.7800319 84.52555899 32.16062785 79.25 32.3125 C74.36573046 32.27731074 71.84564571 31.11314176 68 28 C66.6808418 27.30570621 65.35350594 26.62469505 64 26 C63.4225 26.61875 62.845 27.2375 62.25 27.875 C57.909849 31.9740315 54.28978672 32.43084918 48.46875 32.328125 C44.90279201 31.85416856 42.7575719 30.23232011 40 28 C38.6808418 27.30570621 37.35350594 26.62469505 36 26 C35.05125 26.804375 34.1025 27.60875 33.125 28.4375 C28.9194297 32.00309221 26.01248282 32.33240261 20.5390625 32.29296875 C16.91512972 31.87482266 14.79535483 30.26290629 12 28 C10.6808418 27.30570621 9.35350594 26.62469505 8 26 C7.67 26.66 7.34 27.32 7 28 C6.34 27.67 5.68 27.34 5 27 C6.375 24.5 6.375 24.5 8 22 C8.66 22 9.32 22 10 22 C10 18.04 10 14.08 10 10 C9.34 10 8.68 10 8 10 C7.236875 9.05125 6.47375 8.1025 5.6875 7.125 C3.33749446 4.24368886 1.75908434 2.76890361 -2 2 C-6.84228853 1.8562586 -10.67207474 2.3198163 -14.5 5.4375 C-16.99341242 7.73308116 -16.99341242 7.73308116 -18 10 C-18.66 10 -19.32 10 -20 10 C-20.66 8.35 -21.32 6.7 -22 5 C-21.46375 5.268125 -20.9275 5.53625 -20.375 5.8125 C-17.66397735 6.29174296 -17.66397735 6.29174296 -14.875 3.625 C-13.92625 2.75875 -12.9775 1.8925 -12 1 C-8.29560824 -0.85219588 -4.04280524 -0.46647753 0 0 Z " fill="#C4D3E6" transform="translate(149,17)"/>
<path d="M0 0 C3.4375 1.875 3.4375 1.875 6 4 C6.99 4.66 7.98 5.32 9 6 C9.94875 5.195625 10.8975 4.39125 11.875 3.5625 C16.07859773 -0.00141981 18.98491279 -0.33644015 24.45703125 -0.2890625 C28.1213785 0.12746852 30.23163423 1.63676093 33 4 C33.83144531 4.57234375 33.83144531 4.57234375 34.6796875 5.15625 C36.79907924 8.11587397 36.05113965 11.24096842 35.6875 14.6875 C35.62626953 15.38939453 35.56503906 16.09128906 35.50195312 16.81445312 C35.34897376 18.5442967 35.17637398 20.27238497 35 22 C35.66 22.33 36.32 22.66 37 23 C35.14292164 26.93263652 32.98720417 29.24856457 29.09375 31.26953125 C25.07433424 32.67182742 21.17335462 32.70244583 17 32 C13.5625 30.125 13.5625 30.125 11 28 C10.01 27.34 9.02 26.68 8 26 C7.05125 26.804375 6.1025 27.60875 5.125 28.4375 C0.92140227 32.00141981 -1.98491279 32.33644015 -7.45703125 32.2890625 C-11.1213785 31.87253148 -13.23163423 30.36323907 -16 28 C-16.639375 27.54625 -17.27875 27.0925 -17.9375 26.625 C-19.63093456 24.03504126 -18.60462322 21.96815038 -18 19 C-17.79050341 14.77394815 -17.654234 11.03729799 -19 7 C-17.87720538 6.01830524 -16.75168527 5.03972702 -15.625 4.0625 C-14.68527344 3.24458984 -14.68527344 3.24458984 -13.7265625 2.41015625 C-9.64036857 -0.92721029 -5.06349961 -0.58335249 0 0 Z " fill="#DAE3EE" transform="translate(22,17)"/>
<path d="M0 0 C4.15722022 1.93013796 5.5864893 3.02261108 7.375 7.25 C7.58125 8.1575 7.7875 9.065 8 10 C8.66 10 9.32 10 10 10 C10.66 8.68 11.32 7.36 12 6 C12.66 6.33 13.32 6.66 14 7 C13.525625 7.70125 13.05125 8.4025 12.5625 9.125 C10.91260143 12.16081337 10.39631536 14.59168786 10 18 C9.7525 17.484375 9.505 16.96875 9.25 16.4375 C7.60733819 13.23430947 5.78601524 10.12552667 4 7 C3.67 13.27 3.34 19.54 3 26 C3.66 26 4.32 26 5 26 C4.75 27.875 4.75 27.875 4 30 C-0.37215281 32.78406143 -4.98775455 32.6651321 -10 32 C-13.4375 30.125 -13.4375 30.125 -16 28 C-16.99 27.34 -17.98 26.68 -19 26 C-19.66 26.33 -20.32 26.66 -21 27 C-21.33 26.34 -21.66 25.68 -22 25 C-22.66 25.33 -23.32 25.66 -24 26 C-24 25.01 -24 24.02 -24 23 C-25.65 23 -27.3 23 -29 23 C-29.33 23.99 -29.66 24.98 -30 26 C-34.875 25.125 -34.875 25.125 -36 24 C-36.12658222 21.34177343 -36.18520214 18.72112576 -36.1875 16.0625 C-36.19974609 15.32064453 -36.21199219 14.57878906 -36.22460938 13.81445312 C-36.22988478 11.87486371 -36.12188902 9.9357629 -36 8 C-35.34 7.34 -34.68 6.68 -34 6 C-31.375 6.375 -31.375 6.375 -29 7 C-29 7.66 -29 8.32 -29 9 C-27.02 9 -25.04 9 -23 9 C-22.67 8.34 -22.34 7.68 -22 7 C-21.67 7.99 -21.34 8.98 -21 10 C-20.34 10 -19.68 10 -19 10 C-19.66 8.35 -20.32 6.7 -21 5 C-20.01 5.33 -19.02 5.66 -18 6 C-15.94272868 4.4045651 -13.94125344 2.73473712 -12 1 C-8.28476614 -0.85761693 -4.05465209 -0.4415342 0 0 Z " fill="#FBFCFB" transform="translate(260,17)"/>
<path d="M0 0 C3.375 1.875 3.375 1.875 6 4 C7.3191582 4.69429379 8.64649406 5.37530495 10 6 C10.94875 5.195625 11.8975 4.39125 12.875 3.5625 C17.07692717 -0.00000347 19.97868613 -0.32454919 25.4453125 -0.30078125 C29.23336355 0.14521253 31.11666767 1.57193067 34 4 C31 4 31 4 28.875 3 C24.8944603 1.61546445 21.17361811 1.8363287 17 2 C15.85149303 6.73879768 15.67098443 11.46291362 15.4375 16.3125 C15.37272461 17.56643555 15.37272461 17.56643555 15.30664062 18.84570312 C15.20114693 20.89696935 15.10012685 22.9484648 15 25 C14.01 25 13.02 25 12 25 C15.70103626 28.70103626 18.71736403 29.72442268 23.78125 30.12109375 C26.98081448 29.94646963 29.27253126 28.59656707 32 27 C32.66 27.33 33.32 27.66 34 28 C29.5280412 31.76586004 26.24368494 32.62663034 20.3984375 32.3984375 C16.90689783 31.81840974 14.71735354 30.19976239 12 28 C10.6808418 27.30570621 9.35350594 26.62469505 8 26 C7.4225 26.61875 6.845 27.2375 6.25 27.875 C1.91230185 31.97171492 -1.70809126 32.43563301 -7.52734375 32.32421875 C-11.1355468 31.85110524 -13.26743367 30.33267857 -16 28 C-16.639375 27.54625 -17.27875 27.0925 -17.9375 26.625 C-19.63093456 24.03504126 -18.60462322 21.96815038 -18 19 C-17.79050341 14.77394815 -17.654234 11.03729799 -19 7 C-17.87720538 6.01830524 -16.75168527 5.03972702 -15.625 4.0625 C-14.68527344 3.24458984 -14.68527344 3.24458984 -13.7265625 2.41015625 C-9.6407905 -0.92686567 -5.06319762 -0.58421511 0 0 Z " fill="#C5D4E6" transform="translate(93,17)"/>
<path d="M0 0 C2.41726058 2.05100898 3.16771704 3.74027551 4.0625 6.75 C4.7225 6.75 5.3825 6.75 6.0625 6.75 C6.330625 6.151875 6.59875 5.55375 6.875 4.9375 C8.04743467 2.77775192 9.25619282 1.39209744 11.0625 -0.25 C11.7225 0.08 12.3825 0.41 13.0625 0.75 C12.7325 1.74 12.4025 2.73 12.0625 3.75 C11.91686504 5.20617639 11.81590665 6.66713152 11.74609375 8.12890625 C11.68325195 9.38670898 11.68325195 9.38670898 11.61914062 10.66992188 C11.57982422 11.54197266 11.54050781 12.41402344 11.5 13.3125 C11.43522461 14.62637695 11.43522461 14.62637695 11.36914062 15.96679688 C11.14480183 20.35650578 11.14480183 20.35650578 11.0625 24.75 C15.81010623 27.35352599 19.94107495 26.75946714 25.0625 25.75 C27.97759282 24.80523446 27.97759282 24.80523446 30.0625 23.75 C26.40440461 27.5300319 24.58805899 28.91062785 19.3125 29.0625 C14.42823046 29.02731074 11.90814571 27.86314176 8.0625 24.75 C6.7433418 24.05570621 5.41600594 23.37469505 4.0625 22.75 C3.7325 23.41 3.4025 24.07 3.0625 24.75 C-2.7101242 27.67496807 -8.70601171 28.72213768 -14.9375 26.75 C-17.29265179 25.27197264 -18.95205515 23.73544485 -20.9375 21.75 C-19.9475 21.75 -18.9575 21.75 -17.9375 21.75 C-17.6075 15.48 -17.2775 9.21 -16.9375 2.75 C-17.5975 2.42 -18.2575 2.09 -18.9375 1.75 C-12.86010676 -3.07000154 -7.03827317 -2.99500986 0 0 Z " fill="#FAFCFC" transform="translate(208.9375,20.25)"/>
<path d="M0 0 C3.4375 1.8125 3.4375 1.8125 6 4 C6.55429687 4.3815625 7.10859375 4.763125 7.6796875 5.15625 C9.79907924 8.11587397 9.05113965 11.24096842 8.6875 14.6875 C8.5956543 15.7403418 8.5956543 15.7403418 8.50195312 16.81445312 C8.34897376 18.5442967 8.17637398 20.27238497 8 22 C8.66 22.33 9.32 22.66 10 23 C6.21999838 27.41000188 1.54442739 30.69281629 -4.34375 31.203125 C-8.73165786 30.93985053 -10.60841213 30.32765516 -14.0625 27.4375 C-14.701875 26.633125 -15.34125 25.82875 -16 25 C-15.34 25 -14.68 25 -14 25 C-14 19.06 -14 13.12 -14 7 C-14.99 7.99 -15.98 8.98 -17 10 C-17.99 10 -18.98 10 -20 10 C-20.66 8.35 -21.32 6.7 -22 5 C-21.46375 5.268125 -20.9275 5.53625 -20.375 5.8125 C-17.66397735 6.29174296 -17.66397735 6.29174296 -14.875 3.625 C-13.92625 2.75875 -12.9775 1.8925 -12 1 C-8.29273244 -0.85363378 -4.04595205 -0.45990853 0 0 Z " fill="#E5E9F1" transform="translate(316,17)"/>
<path d="M0 0 C4.15722022 1.93013796 5.5864893 3.02261108 7.375 7.25 C7.58125 8.1575 7.7875 9.065 8 10 C7.34 10 6.68 10 6 10 C5.67 9.34 5.34 8.68 5 8 C4.67 8.33 4.34 8.66 4 9 C2.00041636 9.04080783 -0.00045254 9.04254356 -2 9 C-2.33 8.34 -2.66 7.68 -3 7 C-4.65 7.33 -6.3 7.66 -8 8 C-8 13.28 -8 18.56 -8 24 C-6.35 24.33 -4.7 24.66 -3 25 C-2.67 24.34 -2.34 23.68 -2 23 C-0.35 23 1.3 23 3 23 C3.33 23.66 3.66 24.32 4 25 C4.99 25 5.98 25 7 25 C4.21824757 28.09083603 2.07501963 30.00388409 -2 31 C-6.58461518 31.07394541 -9.92923699 30.86183365 -13.5625 27.9375 C-14.2740625 26.9784375 -14.2740625 26.9784375 -15 26 C-14.34 26 -13.68 26 -13 26 C-13 25.44014404 -13 24.88028809 -13 24.3034668 C-13 17.53564453 -13 10.76782227 -13 4 C-13.78375 4.99 -14.5675 5.98 -15.375 7 C-16.24125 7.99 -17.1075 8.98 -18 10 C-18.66 10 -19.32 10 -20 10 C-20.66 8.35 -21.32 6.7 -22 5 C-21.46375 5.268125 -20.9275 5.53625 -20.375 5.8125 C-17.66397735 6.29174296 -17.66397735 6.29174296 -14.875 3.625 C-13.92625 2.75875 -12.9775 1.8925 -12 1 C-8.28476614 -0.85761693 -4.05465209 -0.4415342 0 0 Z " fill="#E6ECF3" transform="translate(233,17)"/>
<path d="M0 0 C2.625 0.375 2.625 0.375 5 1 C5 1.66 5 2.32 5 3 C6.98 3 8.96 3 11 3 C11.33 2.34 11.66 1.68 12 1 C14.99298593 5.11535566 15.61007477 7.94509477 15 13 C13.86063579 15.53027637 12.52612611 17.6631194 11 20 C10.67 19.01 10.34 18.02 10 17 C8.35 17 6.7 17 5 17 C4.67 17.99 4.34 18.98 4 20 C-0.875 19.125 -0.875 19.125 -2 18 C-2.12658222 15.34177343 -2.18520214 12.72112576 -2.1875 10.0625 C-2.19974609 9.32064453 -2.21199219 8.57878906 -2.22460938 7.81445312 C-2.22988478 5.87486371 -2.12188902 3.9357629 -2 2 C-1.34 1.34 -0.68 0.68 0 0 Z " fill="#426EA9" transform="translate(226,23)"/>
<path d="M0 0 C4.5 4.5 4.5 4.5 6 8 C6.34933594 7.4225 6.69867188 6.845 7.05859375 6.25 C7.51363281 5.5075 7.96867188 4.765 8.4375 4 C8.88996094 3.2575 9.34242188 2.515 9.80859375 1.75 C10.39833984 0.88375 10.39833984 0.88375 11 0 C11.33 0 11.66 0 12 0 C12 7.33333333 12 14.66666667 12 22 C16.74760623 24.60352599 20.87857495 24.00946714 26 23 C28.91509282 22.05523446 28.91509282 22.05523446 31 21 C27.34190461 24.7800319 25.52555899 26.16062785 20.25 26.3125 C15.36573046 26.27731074 12.84564571 25.11314176 9 22 C7.6808418 21.30570621 6.35350594 20.62469505 5 20 C4.67 20.66 4.34 21.32 4 22 C3.34 22 2.68 22 2 22 C2 21.34 2 20.68 2 20 C1.34 20 0.68 20 0 20 C0 13.4 0 6.8 0 0 Z " fill="#AFC2D9" transform="translate(208,23)"/>
<path d="M0 0 C4.5 4.5 4.5 4.5 6 8 C6.34933594 7.4225 6.69867188 6.845 7.05859375 6.25 C7.51363281 5.5075 7.96867187 4.765 8.4375 4 C8.88996094 3.2575 9.34242188 2.515 9.80859375 1.75 C10.39833984 0.88375 10.39833984 0.88375 11 0 C11.33 0 11.66 0 12 0 C12.02888146 3.31248187 12.04675799 6.62493167 12.0625 9.9375 C12.07087891 10.88302734 12.07925781 11.82855469 12.08789062 12.80273438 C12.09111328 13.70185547 12.09433594 14.60097656 12.09765625 15.52734375 C12.10289307 16.35999756 12.10812988 17.19265137 12.11352539 18.05053711 C12 20 12 20 11 21 C15.55399021 23.91922449 18.62960207 24.30725959 23.80859375 23.52734375 C26.81109946 22.80481564 29.34945069 21.56314446 32 20 C32 20.66 32 21.32 32 22 C26.4002558 25.89547423 21.81917384 27.1496789 15 26 C11.625 24.125 11.625 24.125 9 22 C7.6808418 21.30570621 6.35350594 20.62469505 5 20 C4.67 20.66 4.34 21.32 4 22 C3.34 22 2.68 22 2 22 C2 21.34 2 20.68 2 20 C1.34 20 0.68 20 0 20 C0 13.4 0 6.8 0 0 Z " fill="#ACC0D9" transform="translate(291,23)"/>
<path d="M0 0 C2.41534564 1.08453755 3.9518276 2.27522324 6 4 C3 4 3 4 0.875 3 C-3.1055397 1.61546445 -6.82638189 1.8363287 -11 2 C-12.20516286 6.89154337 -12.33461434 11.80275122 -12.5625 16.8125 C-12.60568359 17.69615234 -12.64886719 18.57980469 -12.69335938 19.49023438 C-12.79891536 21.65999623 -12.89991071 23.8299791 -13 26 C-13.66 26 -14.32 26 -15 26 C-11.79570585 29.20429415 -8.66517585 29.64223652 -4.328125 30.015625 C-0.90352583 29.99264111 1.78953107 29.16123344 5 28 C1.80200378 31.34335968 -0.11527034 32.17907596 -4.75 32.3125 C-9.61705785 32.27738414 -12.19636923 31.15423039 -16 28 C-16.99 27.34 -17.98 26.68 -19 26 C-19.66 26.33 -20.32 26.66 -21 27 C-21.625 25.25 -21.625 25.25 -22 23 C-21.6803125 22.40832031 -21.360625 21.81664063 -21.03125 21.20703125 C-19.74828034 18.46128179 -19.80112403 16.45410227 -19.875 13.4375 C-19.89304688 12.48746094 -19.91109375 11.53742187 -19.9296875 10.55859375 C-19.95289063 9.71425781 -19.97609375 8.86992187 -20 8 C-20 7.01 -20 6.02 -20 5 C-19.01 5 -18.02 5 -17 5 C-15.29749607 3.71274093 -13.62935241 2.37868281 -12 1 C-8.29929304 -0.85035348 -4.03844746 -0.4754747 0 0 Z " fill="#99B8D7" transform="translate(260,17)"/>
<path d="M0 0 C4.5 4.5 4.5 4.5 6 8 C7.32 5.69 8.64 3.38 10 1 C10.33 1 10.66 1 11 1 C11.02683987 3.97922593 11.04676037 6.95821295 11.0625 9.9375 C11.07087891 10.78763672 11.07925781 11.63777344 11.08789062 12.51367188 C11.09111328 13.32255859 11.09433594 14.13144531 11.09765625 14.96484375 C11.10289307 15.7137085 11.10812988 16.46257324 11.11352539 17.23413086 C11 19 11 19 10 20 C13.20429415 23.20429415 16.33482415 23.64223652 20.671875 24.015625 C24.09647417 23.99264111 26.78953107 23.16123344 30 22 C26.80200378 25.34335968 24.88472966 26.17907596 20.25 26.3125 C15.36573046 26.27731074 12.84564571 25.11314176 9 22 C7.6808418 21.30570621 6.35350594 20.62469505 5 20 C4.67 20.66 4.34 21.32 4 22 C3.34 22 2.68 22 2 22 C2 21.34 2 20.68 2 20 C1.34 20 0.68 20 0 20 C0 13.4 0 6.8 0 0 Z " fill="#B1BCD3" transform="translate(263,23)"/>
<path d="M0 0 C0.66 0 1.32 0 2 0 C4.35323173 3.67692458 4.43676496 6.70514454 4 11 C2.51711902 15.10319908 0.75632438 17.49030314 -2.875 19.9375 C-6.1518162 21.05161751 -8.56532306 21.31950483 -12 21 C-13 20 -13 20 -13.09765625 17.71484375 C-13.08605469 16.79832031 -13.07445312 15.88179687 -13.0625 14.9375 C-13.05347656 14.01839844 -13.04445312 13.09929688 -13.03515625 12.15234375 C-13.02355469 11.44207031 -13.01195312 10.73179688 -13 10 C-12.31292969 9.9484375 -11.62585938 9.896875 -10.91796875 9.84375 C-8.07252118 9.48552484 -5.66525525 9.0729691 -3 8 C-1.13771933 5.32399552 -0.73321849 3.24711048 0 0 Z " fill="#4370AB" transform="translate(153,25)"/>
<path d="M0 0 C0.33 0 0.66 0 1 0 C1 6.27 1 12.54 1 19 C0.34 19.33 -0.32 19.66 -1 20 C2.20429415 23.20429415 5.33482415 23.64223652 9.671875 24.015625 C13.09647417 23.99264111 15.78953107 23.16123344 19 22 C15.80200378 25.34335968 13.88472966 26.17907596 9.25 26.3125 C4.36573046 26.27731074 1.84564571 25.11314176 -2 22 C-4.11660427 20.68834743 -4.11660427 20.68834743 -6 20 C-6.66 20.33 -7.32 20.66 -8 21 C-7.67 20.01 -7.34 19.02 -7 18 C-7.66 17.67 -8.32 17.34 -9 17 C-9.33 17.66 -9.66 18.32 -10 19 C-10 13.06 -10 7.12 -10 1 C-7.49183541 3.50816459 -6.38589981 4.90837736 -5 8 C-4.65066406 7.4225 -4.30132812 6.845 -3.94140625 6.25 C-3.48636719 5.5075 -3.03132812 4.765 -2.5625 4 C-2.11003906 3.2575 -1.65757812 2.515 -1.19140625 1.75 C-0.60166016 0.88375 -0.60166016 0.88375 0 0 Z " fill="#9EBFDD" transform="translate(135,23)"/>
<path d="M0 0 C4.55555556 0.55555556 4.55555556 0.55555556 6 2 C6.08685603 3.56172745 6.10702219 5.12729344 6.09765625 6.69140625 C6.09443359 7.63564453 6.09121094 8.57988281 6.08789062 9.55273438 C6.07951172 10.54595703 6.07113281 11.53917969 6.0625 12.5625 C6.05798828 13.55958984 6.05347656 14.55667969 6.04882812 15.58398438 C6.03700007 18.05604849 6.02051849 20.52799518 6 23 C3.36 23 0.72 23 -2 23 C-2.05789006 19.54173658 -2.09355821 16.08359707 -2.125 12.625 C-2.14175781 11.64015625 -2.15851563 10.6553125 -2.17578125 9.640625 C-2.18222656 8.69960938 -2.18867187 7.75859375 -2.1953125 6.7890625 C-2.20578613 5.91975098 -2.21625977 5.05043945 -2.22705078 4.15478516 C-2 2 -2 2 0 0 Z " fill="#4975AE" transform="translate(114,23)"/>
<path d="M0 0 C1.98 0 3.96 0 6 0 C8.91341232 3.14341856 9.90566504 5.24532034 10.4375 9.5 C9.94225632 13.46194942 8.90571036 17.09428964 6 20 C4.02 20 2.04 20 0 20 C0 13.4 0 6.8 0 0 Z " fill="#376AAA" transform="translate(91,23)"/>
<path d="M0 0 C1.98 0 3.96 0 6 0 C6 6.6 6 13.2 6 20 C4.02 20 2.04 20 0 20 C-3.1793139 15.13167558 -4.87166273 11.99268129 -4 6 C-2.375 2.5625 -2.375 2.5625 0 0 Z " fill="#3D68A4" transform="translate(79,23)"/>
<path d="M0 0 C4.55555556 0.55555556 4.55555556 0.55555556 6 2 C6.12658222 4.65822657 6.18520214 7.27887424 6.1875 9.9375 C6.19974609 10.67935547 6.21199219 11.42121094 6.22460938 12.18554688 C6.22988478 14.12513629 6.12188902 16.0642371 6 18 C4 20 4 20 0.875 20.125 C-0.548125 20.063125 -0.548125 20.063125 -2 20 C-2.05379226 17.04142591 -2.09357093 14.08382279 -2.125 11.125 C-2.14175781 10.28324219 -2.15851563 9.44148438 -2.17578125 8.57421875 C-2.18222656 7.76855469 -2.18867188 6.96289062 -2.1953125 6.1328125 C-2.21102295 5.01737061 -2.21102295 5.01737061 -2.22705078 3.87939453 C-2 2 -2 2 0 0 Z " fill="#4A75AE" transform="translate(281,23)"/>
<path d="M0 0 C4.55555556 0.55555556 4.55555556 0.55555556 6 2 C6.12658222 4.65822657 6.18520214 7.27887424 6.1875 9.9375 C6.19974609 10.67935547 6.21199219 11.42121094 6.22460938 12.18554688 C6.22988478 14.12513629 6.12188902 16.0642371 6 18 C5.34 18.66 4.68 19.32 4 20 C-0.55555556 19.44444444 -0.55555556 19.44444444 -2 18 C-2.12658222 15.34177343 -2.18520214 12.72112576 -2.1875 10.0625 C-2.19974609 9.32064453 -2.21199219 8.57878906 -2.22460938 7.81445312 C-2.22988478 5.87486371 -2.12188902 3.9357629 -2 2 C-1.34 1.34 -0.68 0.68 0 0 Z " fill="#4A75AE" transform="translate(253,23)"/>
<path d="M0 0 C4.55555556 0.55555556 4.55555556 0.55555556 6 2 C6.12658222 4.65822657 6.18520214 7.27887424 6.1875 9.9375 C6.19974609 10.67935547 6.21199219 11.42121094 6.22460938 12.18554688 C6.22988478 14.12513629 6.12188902 16.0642371 6 18 C5.34 18.66 4.68 19.32 4 20 C-0.55555556 19.44444444 -0.55555556 19.44444444 -2 18 C-2.12658222 15.34177343 -2.18520214 12.72112576 -2.1875 10.0625 C-2.19974609 9.32064453 -2.21199219 8.57878906 -2.22460938 7.81445312 C-2.22988478 5.87486371 -2.12188902 3.9357629 -2 2 C-1.34 1.34 -0.68 0.68 0 0 Z " fill="#4A75AE" transform="translate(198,23)"/>
<path d="M0 0 C2 4 2 4 2.78125 6 C4.36354494 8.59658656 5.83036159 9.13214464 8.625 10.25 C9.44226562 10.58515625 10.25953125 10.9203125 11.1015625 11.265625 C11.72804688 11.50796875 12.35453125 11.7503125 13 12 C13 13.65 13 15.3 13 17 C11.35 17.33 9.7 17.66 8 18 C7.67 17.01 7.34 16.02 7 15 C5.35 15 3.7 15 2 15 C1.67 15.99 1.34 16.98 1 18 C-2.18769162 13.1188472 -3.79438232 10.01460903 -3 4 C-1.5 1.5625 -1.5 1.5625 0 0 Z " fill="#456FAB" transform="translate(7,25)"/>
<path d="M0 0 C0.66 0 1.32 0 2 0 C4.34515209 3.66430014 4.36881381 6.72175983 4 11 C2.5 14.4375 2.5 14.4375 1 17 C0.67 16.34 0.34 15.68 0 15 C-1.98 15 -3.96 15 -6 15 C-6.33 15.99 -6.66 16.98 -7 18 C-8.65 17.67 -10.3 17.34 -12 17 C-12 15.02 -12 13.04 -12 11 C-11.38511719 10.87625 -10.77023437 10.7525 -10.13671875 10.625 C-5.1833674 9.47297969 -5.1833674 9.47297969 -1.734375 6.01953125 C-0.80866734 3.57681055 -0.80866734 3.57681055 0 0 Z " fill="#3F6FAD" transform="translate(320,25)"/>
<path d="M0 0 C1.67542976 0.28604898 3.34385343 0.61781233 5 1 C5 1.66 5 2.32 5 3 C7.47266765 2.65555119 7.47266765 2.65555119 10 2 C10.33 1.34 10.66 0.68 11 0 C13.55170509 3.26937215 14.92682899 5.40417889 15.4375 9.5625 C14.97918386 13.1635554 14.17723563 15.12604897 12 18 C11.67 18 11.34 18 11 18 C10.6596875 16.3603125 10.6596875 16.3603125 10.3125 14.6875 C9.34923164 10.94108237 9.34923164 10.94108237 6.6875 9.1875 C4.14341497 8.0633694 1.60755763 6.96852141 -1 6 C-1.042721 4.33388095 -1.04063832 2.66617115 -1 1 C-0.67 0.67 -0.34 0.34 0 0 Z " fill="#4070AD" transform="translate(15,23)"/>
<path d="M0 0 C4.7734375 -0.1328125 4.7734375 -0.1328125 6.8125 1.0625 C8.62623389 4.02175003 8.25068132 6.61580225 8 10 C7 11 7 11 4 11.125 C1 11 1 11 0 10 C-0.07205511 8.31391034 -0.08386068 6.62499341 -0.0625 4.9375 C-0.05347656 4.01839844 -0.04445312 3.09929688 -0.03515625 2.15234375 C-0.02355469 1.44207031 -0.01195312 0.73179688 0 0 Z " fill="#5179B0" transform="translate(168,35)"/>
<path d="M0 0 C2.73376014 4.73851757 3.35458816 8.53436895 2.0625 13.875 C1.711875 14.90625 1.36125 15.9375 1 17 C-2.21702267 14.06271843 -2.92910162 11.97485269 -3.25 7.5625 C-2.99048487 3.86440936 -2.5119293 2.61659303 0 0 Z " fill="#4A6FAB" transform="translate(34,25)"/>
<path d="M0 0 C0.66 0 1.32 0 2 0 C4.34515209 3.66430014 4.36881381 6.72175983 4 11 C2.5 14.4375 2.5 14.4375 1 17 C0.67 17 0.34 17 0 17 C-2.66514806 5.47835991 -2.66514806 5.47835991 0 0 Z " fill="#3F72B2" transform="translate(181,25)"/>
<path d="M0 0 C0.66 0 1.32 0 2 0 C4.33991708 3.65612044 4.37437949 6.73207376 4 11 C2.5625 13.9375 2.5625 13.9375 1 16 C0.67 16 0.34 16 0 16 C-1.81742599 11.50988872 -2.12548788 8.70658569 -1 4 C-0.814375 3.21625 -0.62875 2.4325 -0.4375 1.625 C-0.293125 1.08875 -0.14875 0.5525 0 0 Z " fill="#4172B1" transform="translate(53,25)"/>
<path d="M0 0 C3.91666667 3.91666667 3.91666667 3.91666667 4.25 8.25 C3.98328301 12.25075479 3.00671475 14.57186231 1 18 C0.67 18 0.34 18 0 18 C0 12.06 0 6.12 0 0 Z " fill="#3C74B5" transform="translate(292,24)"/>
<path d="M0 0 C3.91666667 3.91666667 3.91666667 3.91666667 4.25 8.25 C3.98328301 12.25075479 3.00671475 14.57186231 1 18 C0.67 18 0.34 18 0 18 C0 12.06 0 6.12 0 0 Z " fill="#3C74B5" transform="translate(264,24)"/>
<path d="M0 0 C3.91666667 3.91666667 3.91666667 3.91666667 4.25 8.25 C3.98328301 12.25075479 3.00671475 14.57186231 1 18 C0.67 18 0.34 18 0 18 C0 12.06 0 6.12 0 0 Z " fill="#3C74B5" transform="translate(209,24)"/>
<path d="M0 0 C0.33 0 0.66 0 1 0 C1 5.94 1 11.88 1 18 C-2.3952204 14.6047796 -2.90226321 13.31944665 -3.25 8.625 C-2.98670679 4.80724842 -2.28481311 3.0159533 0 0 Z " fill="#4F6DAA" transform="translate(273,24)"/>
<path d="M0 0 C0.33 0 0.66 0 1 0 C1 5.94 1 11.88 1 18 C-2.3952204 14.6047796 -2.90226321 13.31944665 -3.25 8.625 C-2.98670679 4.80724842 -2.28481311 3.0159533 0 0 Z " fill="#4F6DA9" transform="translate(245,24)"/>
<path d="M0 0 C0.33 0 0.66 0 1 0 C1 5.94 1 11.88 1 18 C-2.3952204 14.6047796 -2.90226321 13.31944665 -3.25 8.625 C-2.98670679 4.80724842 -2.28481311 3.0159533 0 0 Z " fill="#4F6DA9" transform="translate(218,24)"/>
<path d="M0 0 C0.33 0 0.66 0 1 0 C1 5.94 1 11.88 1 18 C-2.3952204 14.6047796 -2.90226321 13.31944665 -3.25 8.625 C-2.98670679 4.80724842 -2.28481311 3.0159533 0 0 Z " fill="#4F6DA9" transform="translate(190,24)"/>
<path d="M0 0 C3.91666667 3.91666667 3.91666667 3.91666667 4.25 8.25 C3.98328301 12.25075479 3.00671475 14.57186231 1 18 C0.67 18 0.34 18 0 18 C0 12.06 0 6.12 0 0 Z " fill="#3C72B4" transform="translate(125,24)"/>
<path d="M0 0 C0.33 0 0.66 0 1 0 C1 5.94 1 11.88 1 18 C-2.3952204 14.6047796 -2.90226321 13.31944665 -3.25 8.625 C-2.98670679 4.80724842 -2.28481311 3.0159533 0 0 Z " fill="#4F6DAA" transform="translate(106,24)"/>
<path d="M0 0 C0.33 0 0.66 0 1 0 C1 5.61 1 11.22 1 17 C-2.91836735 13.08163265 -2.91836735 13.08163265 -3.25 8.6875 C-2.98846 4.82978499 -2.3066273 3.04474804 0 0 Z " fill="#4B6CA9" transform="translate(162,24)"/>
<path d="M0 0 C0.33 0 0.66 0 1 0 C1 5.61 1 11.22 1 17 C-2.91836735 13.08163265 -2.91836735 13.08163265 -3.25 8.6875 C-2.98846 4.82978499 -2.3066273 3.04474804 0 0 Z " fill="#4B6CA9" transform="translate(134,24)"/>
<path d="M0 0 C0.33 0 0.66 0 1 0 C1 5.28 1 10.56 1 16 C-2 14 -2 14 -3 11 C-3.45320197 4.76847291 -3.45320197 4.76847291 -1.5625 1.5625 C-1.046875 1.046875 -0.53125 0.53125 0 0 Z " fill="#4B6CA9" transform="translate(301,25)"/>
<path d="M0 0 C1.67542976 0.28604898 3.34385343 0.61781233 5 1 C5.042721 2.66611905 5.04063832 4.33382885 5 6 C4 7 4 7 1.4375 7.0625 C0.2309375 7.0315625 0.2309375 7.0315625 -1 7 C-1.04254356 5.00045254 -1.04080783 2.99958364 -1 1 C-0.67 0.67 -0.34 0.34 0 0 Z " fill="#406EAB" transform="translate(309,23)"/>
<path d="M0 0 C1.67542976 0.28604898 3.34385343 0.61781233 5 1 C5.042721 2.66611905 5.04063832 4.33382885 5 6 C4 7 4 7 1.4375 7.0625 C0.2309375 7.0315625 0.2309375 7.0315625 -1 7 C-1.04254356 5.00045254 -1.04080783 2.99958364 -1 1 C-0.67 0.67 -0.34 0.34 0 0 Z " fill="#406EAB" transform="translate(170,23)"/>
<path d="M0 0 C1.67542976 0.28604898 3.34385343 0.61781233 5 1 C5.042721 2.66611905 5.04063832 4.33382885 5 6 C4 7 4 7 1.4375 7.0625 C0.2309375 7.0315625 0.2309375 7.0315625 -1 7 C-1.04254356 5.00045254 -1.04080783 2.99958364 -1 1 C-0.67 0.67 -0.34 0.34 0 0 Z " fill="#406EAB" transform="translate(142,23)"/>
<path d="M0 0 C1.67542976 0.28604898 3.34385343 0.61781233 5 1 C5 2.65 5 4.3 5 6 C3.34385343 6.38218767 1.67542976 6.71395102 0 7 C-1 6 -1 6 -1.125 3.5 C-1 1 -1 1 0 0 Z " fill="#416EAB" transform="translate(42,36)"/>
<path d="M0 0 C1.67542976 0.28604898 3.34385343 0.61781233 5 1 C5 2.65 5 4.3 5 6 C3.34385343 6.38218767 1.67542976 6.71395102 0 7 C-1 6 -1 6 -1.125 3.5 C-1 1 -1 1 0 0 Z " fill="#426EAB" transform="translate(42,23)"/>
<path d="M0 0 C0.66 1.32 1.32 2.64 2 4 C2.99 2.68 3.98 1.36 5 0 C5 0.99 5 1.98 5 3 C5.66 3.33 6.32 3.66 7 4 C5.68 5.32 4.36 6.64 3 8 C2.01 7.67 1.02 7.34 0 7 C0 4.69 0 2.38 0 0 Z " fill="#C0CADD" transform="translate(52,36)"/>
<path d="M0 0 C0.33 0.99 0.66 1.98 1 3 C1.66 3.33 2.32 3.66 3 4 C1.68 5.32 0.36 6.64 -1 8 C-1.99 7.67 -2.98 7.34 -4 7 C-3.67 6.01 -3.34 5.02 -3 4 C-2.34 3.67 -1.68 3.34 -1 3 C-0.67 2.01 -0.34 1.02 0 0 Z " fill="#C0CFE3" transform="translate(323,36)"/>
<path d="M0 0 C0.33 0 0.66 0 1 0 C1.99 3.3 2.98 6.6 4 10 C3.01 10 2.02 10 1 10 C1 9.34 1 8.68 1 8 C0.34 8 -0.32 8 -1 8 C-0.67 5.36 -0.34 2.72 0 0 Z " fill="#F4F0EB" transform="translate(186,31)"/>
<path d="M0 0 C0.33 0 0.66 0 1 0 C1.25 2.25 1.25 2.25 1 5 C-1 7.3125 -1 7.3125 -3 9 C-3.66 8.34 -4.32 7.68 -5 7 C-4.0409375 6.1028125 -4.0409375 6.1028125 -3.0625 5.1875 C-0.79689611 3.09189663 -0.79689611 3.09189663 0 0 Z " fill="#D3E7F0" transform="translate(156,36)"/>
</svg>
